HIERARCHY
ROOT Root
{
  OFFSET 0.0 0.0 0.0
  CHANNELS 6 Xposition Yposition Zposition Zrotation Yrotation Xrotation
  JOINT Hips
  {
    OFFSET 0.0 100.0 0.0
    CHANNELS 6 Xposition Yposition Zposition Zrotation Yrotation Xrotation
    JOINT Spine1
    {
      OFFSET -0.013727 5.003763 -0.053727
      CHANNELS 3 Zrotation Yrotation Xrotation
      JOINT Spine2
      {
        OFFSET -0.0 7.125301 -0.029825
        CHANNELS 3 Zrotation Yrotation Xrotation
        JOINT Chest
        {
          OFFSET -1e-06 7.550063 -0.815971
          CHANNELS 3 Zrotation Yrotation Xrotation
          JOINT Neck1
          {
            OFFSET -0.181677 26.311295 -0.553348
            CHANNELS 3 Zrotation Yrotation Xrotation
            JOINT Neck2
            {
              OFFSET -3e-06 7.709397 2.302585
              CHANNELS 3 Zrotation Yrotation Xrotation
              JOINT Head
              {
                OFFSET -5e-06 6.128916 1.953709
                CHANNELS 3 Zrotation Yrotation Xrotation
                JOINT HeadEnd
                {
                  OFFSET 0.003598 16.065403 -1.835379
                  CHANNELS 3 Zrotation Yrotation Xrotation
                }
                JOINT Jaw
                {
                  OFFSET 0.002637 0.475592 3.094941
                  CHANNELS 3 Zrotation Yrotation Xrotation
                }
                JOINT LeftEye
                {
                  OFFSET 3.206381 5.380205 7.586883
                  CHANNELS 3 Zrotation Yrotation Xrotation
                }
                JOINT RightEye
                {
                  OFFSET -3.22244 5.361869 7.558234
                  CHANNELS 3 Zrotation Yrotation Xrotation
                }
              }
            }
          }
          JOINT LeftShoulder
          {
            OFFSET 1.621652 23.237164 5.113413
            CHANNELS 3 Zrotation Yrotation Xrotation
            JOINT LeftArm
            {
              OFFSET 14.919846 2e-06 -5.502326
              CHANNELS 3 Zrotation Yrotation Xrotation
              JOINT LeftForeArm
              {
                OFFSET 28.739307 0.0 -0.002588
                CHANNELS 3 Zrotation Yrotation Xrotation
                JOINT LeftHand
                {
                  OFFSET 27.093981 -1e-06 0.002609
                  CHANNELS 3 Zrotation Yrotation Xrotation
                  JOINT LeftHandThumb1
                  {
                    OFFSET 2.276482 -1.392045 3.191413
                    CHANNELS 3 Zrotation Yrotation Xrotation
                    JOINT LeftHandThumb2
                    {
                      OFFSET 4.012836 -1.828127 1.641654
                      CHANNELS 3 Zrotation Yrotation Xrotation
                      JOINT LeftHandThumb3
                      {
                        OFFSET 2.798515 0.0 -3e-06
                        CHANNELS 3 Zrotation Yrotation Xrotation
                        JOINT LeftHandThumbEnd
                        {
                          OFFSET 3.180793 -4e-06 4e-06
                          CHANNELS 3 Zrotation Yrotation Xrotation
                        }
                      }
                    }
                  }
                  JOINT LeftHandIndex1
                  {
                    OFFSET 3.247555 -0.531998 2.296169
                    CHANNELS 3 Zrotation Yrotation Xrotation
                    JOINT LeftHandIndex2
                    {
                      OFFSET 6.364578 0.01206 0.1786
                      CHANNELS 3 Zrotation Yrotation Xrotation
                      JOINT LeftHandIndex3
                      {
                        OFFSET 3.662364 0.0 0.0
                        CHANNELS 3 Zrotation Yrotation Xrotation
                        JOINT LeftHandIndex4
                        {
                          OFFSET 2.329242 4e-06 4e-06
                          CHANNELS 3 Zrotation Yrotation Xrotation
                          JOINT LeftHandIndexEnd
                          {
                            OFFSET 2.759615 -0.180537 -0.113024
                            CHANNELS 3 Zrotation Yrotation Xrotation
                          }
                        }
                      }
                    }
                  }
                  JOINT LeftHandMiddle1
                  {
                    OFFSET 3.163495 0.240981 1.000332
                    CHANNELS 3 Zrotation Yrotation Xrotation
                    JOINT LeftHandMiddle2
                    {
                      OFFSET 6.19078 -0.259278 -1.002548
                      CHANNELS 3 Zrotation Yrotation Xrotation
                      JOINT LeftHandMiddle3
                      {
                        OFFSET 4.35652 -4e-06 -1e-06
                        CHANNELS 3 Zrotation Yrotation Xrotation
                        JOINT LeftHandMiddle4
                        {
                          OFFSET 2.996877 -8e-06 0.0
                          CHANNELS 3 Zrotation Yrotation Xrotation
                          JOINT LeftHandMiddleEnd
                          {
                            OFFSET 2.304287 -0.294569 -0.031741
                            CHANNELS 3 Zrotation Yrotation Xrotation
                          }
                        }
                      }
                    }
                  }
                  JOINT LeftHandRing1
                  {
                    OFFSET 2.882643 -0.053652 -0.322543
                    CHANNELS 3 Zrotation Yrotation Xrotation
                    JOINT LeftHandRing2
                    {
                      OFFSET 5.854541 -0.486202 -1.373841
                      CHANNELS 3 Zrotation Yrotation Xrotation
                      JOINT LeftHandRing3
                      {
                        OFFSET 4.350578 0.0 3e-06
                        CHANNELS 3 Zrotation Yrotation Xrotation
                        JOINT LeftHandRing4
                        {
                          OFFSET 2.651321 7e-06 2e-06
                          CHANNELS 3 Zrotation Yrotation Xrotation
                          JOINT LeftHandRingEnd
                          {
                            OFFSET 1.936105 0.077687 -7.1e-05
                            CHANNELS 3 Zrotation Yrotation Xrotation
                          }
                        }
                      }
                    }
                  }
                  JOINT LeftHandPinky1
                  {
                    OFFSET 2.8655 -0.310005 -1.600378
                    CHANNELS 3 Zrotation Yrotation Xrotation
                    JOINT LeftHandPinky2
                    {
                      OFFSET 5.087849 -1.331141 -1.77123
                      CHANNELS 3 Zrotation Yrotation Xrotation
                      JOINT LeftHandPinky3
                      {
                        OFFSET 3.070974 4e-06 0.0
                        CHANNELS 3 Zrotation Yrotation Xrotation
                        JOINT LeftHandPinky4
                        {
                          OFFSET 1.549672 0.0 1e-06
                          CHANNELS 3 Zrotation Yrotation Xrotation
                          JOINT LeftHandPinkyEnd
                          {
                            OFFSET 1.944893 -0.157802 0.057219
                            CHANNELS 3 Zrotation Yrotation Xrotation
                          }
                        }
                      }
                    }
                  }
                }
              }
            }
          }
          JOINT RightShoulder
          {
            OFFSET -1.380118 23.180309 5.214158
            CHANNELS 3 Zrotation Yrotation Xrotation
            JOINT RightArm
            {
              OFFSET -15.037196 1.2e-05 -5.545604
              CHANNELS 3 Zrotation Yrotation Xrotation
              JOINT RightForeArm
              {
                OFFSET -28.736639 2e-06 -0.002597
                CHANNELS 3 Zrotation Yrotation Xrotation
                JOINT RightHand
                {
                  OFFSET -27.133619 -0.0 0.002613
                  CHANNELS 3 Zrotation Yrotation Xrotation
                  JOINT RightHandThumb1
                  {
                    OFFSET -2.274032 -1.383988 3.163127
                    CHANNELS 3 Zrotation Yrotation Xrotation
                    JOINT RightHandThumb2
                    {
                      OFFSET -4.011429 -1.827466 1.640914
                      CHANNELS 3 Zrotation Yrotation Xrotation
                      JOINT RightHandThumb3
                      {
                        OFFSET -2.794935 -4e-06 -3e-06
                        CHANNELS 3 Zrotation Yrotation Xrotation
                        JOINT RightHandThumbEnd
                        {
                          OFFSET -3.183852 4e-06 1e-06
                          CHANNELS 3 Zrotation Yrotation Xrotation
                        }
                      }
                    }
                  }
                  JOINT RightHandIndex1
                  {
                    OFFSET -3.253266 -0.520057 2.282866
                    CHANNELS 3 Zrotation Yrotation Xrotation
                    JOINT RightHandIndex2
                    {
                      OFFSET -6.341917 0.012471 0.178266
                      CHANNELS 3 Zrotation Yrotation Xrotation
                      JOINT RightHandIndex3
                      {
                        OFFSET -3.654871 -8e-06 -0.0
                        CHANNELS 3 Zrotation Yrotation Xrotation
                        JOINT RightHandIndex4
                        {
                          OFFSET -2.327586 0.0 1e-06
                          CHANNELS 3 Zrotation Yrotation Xrotation
                          JOINT RightHandIndexEnd
                          {
                            OFFSET -2.76179 -0.180656 -0.113078
                            CHANNELS 3 Zrotation Yrotation Xrotation
                          }
                        }
                      }
                    }
                  }
                  JOINT RightHandMiddle1
                  {
                    OFFSET -3.168106 0.246593 1.00103
                    CHANNELS 3 Zrotation Yrotation Xrotation
                    JOINT RightHandMiddle2
                    {
                      OFFSET -6.180828 -0.258836 -1.000895
                      CHANNELS 3 Zrotation Yrotation Xrotation
                      JOINT RightHandMiddle3
                      {
                        OFFSET -4.348901 0.0 -0.0
                        CHANNELS 3 Zrotation Yrotation Xrotation
                        JOINT RightHandMiddle4
                        {
                          OFFSET -3.00024 -4e-06 -2e-06
                          CHANNELS 3 Zrotation Yrotation Xrotation
                          JOINT RightHandMiddleEnd
                          {
                            OFFSET -2.30252 -0.29437 -0.031706
                            CHANNELS 3 Zrotation Yrotation Xrotation
                          }
                        }
                      }
                    }
                  }
                  JOINT RightHandRing1
                  {
                    OFFSET -2.88569 -0.067952 -0.308858
                    CHANNELS 3 Zrotation Yrotation Xrotation
                    JOINT RightHandRing2
                    {
                      OFFSET -5.854198 -0.48613 -1.373731
                      CHANNELS 3 Zrotation Yrotation Xrotation
                      JOINT RightHandRing3
                      {
                        OFFSET -4.33881 -4e-06 -0.0
                        CHANNELS 3 Zrotation Yrotation Xrotation
                        JOINT RightHandRing4
                        {
                          OFFSET -2.654903 -4e-06 4e-06
                          CHANNELS 3 Zrotation Yrotation Xrotation
                          JOINT RightHandRingEnd
                          {
                            OFFSET -1.933568 0.077527 -5.2e-05
                            CHANNELS 3 Zrotation Yrotation Xrotation
                          }
                        }
                      }
                    }
                  }
                  JOINT RightHandPinky1
                  {
                    OFFSET -2.866425 -0.342796 -1.584145
                    CHANNELS 3 Zrotation Yrotation Xrotation
                    JOINT RightHandPinky2
                    {
                      OFFSET -5.091371 -1.332055 -1.772385
                      CHANNELS 3 Zrotation Yrotation Xrotation
                      JOINT RightHandPinky3
                      {
                        OFFSET -3.062664 -4e-06 1e-06
                        CHANNELS 3 Zrotation Yrotation Xrotation
                        JOINT RightHandPinky4
                        {
                          OFFSET -1.546529 4e-06 -2e-06
                          CHANNELS 3 Zrotation Yrotation Xrotation
                          JOINT RightHandPinkyEnd
                          {
                            OFFSET -1.945119 -0.157718 0.057211
                            CHANNELS 3 Zrotation Yrotation Xrotation
                          }
                        }
                      }
                    }
                  }
                }
              }
            }
          }
        }
      }
    }
    JOINT LeftLeg
    {
      OFFSET 10.043214 -8.434526 2.595655
      CHANNELS 3 Zrotation Yrotation Xrotation
      JOINT LeftShin
      {
        OFFSET -1e-06 -43.221752 -0.802913
        CHANNELS 3 Zrotation Yrotation Xrotation
        JOINT LeftFoot
        {
          OFFSET 1e-06 -42.155094 -3.481523
          CHANNELS 3 Zrotation Yrotation Xrotation
          JOINT LeftToeBase
          {
            OFFSET 0.0 -5.059472 13.231529
            CHANNELS 3 Zrotation Yrotation Xrotation
            JOINT LeftToeEnd
            {
              OFFSET -0.009607 -1.647619 6.513017
              CHANNELS 3 Zrotation Yrotation Xrotation
            }
          }
        }
      }
    }
    JOINT RightLeg
    {
      OFFSET -10.047278 -8.29526 2.620317
      CHANNELS 3 Zrotation Yrotation Xrotation
      JOINT RightShin
      {
        OFFSET 1e-06 -43.362206 -0.805556
        CHANNELS 3 Zrotation Yrotation Xrotation
        JOINT RightFoot
        {
          OFFSET 2e-06 -42.117393 -3.478398
          CHANNELS 3 Zrotation Yrotation Xrotation
          JOINT RightToeBase
          {
            OFFSET -0.0 -5.079609 13.284196
            CHANNELS 3 Zrotation Yrotation Xrotation
            JOINT RightToeEnd
            {
              OFFSET 0.009532 -1.634378 6.460591
              CHANNELS 3 Zrotation Yrotation Xrotation
            }
          }
        }
      }
    }
  }
}
MOTION
Frames: 4
Frame Time: 0.03333333333333333
0.198968 0.0 -0.077142 0.0 0.074914 0.0 0.0 99.659554 0.0 0.605274 0.034573 -3.258018 -0.021042 -0.411507 -2.002674 -0.579274 -1.080867 -6.011397 -0.874866 -2.862164 22.449629 0.102731 2.245929 9.285891 -0.258889 -1.42154 -3.776812 -1.023113 -1.38318 -23.332424 5.5e-05 -5.5e-05 0.000184 -0.016105 -0.084858 0.038789 0.620992 -3.789053 -10.310863 -0.654378 3.633534 -10.288122 -16.621933 -6.930367 22.133223 -50.389137 -17.406435 19.300041 -0.400662 -35.201965 0.090482 -0.541944 0.148 7.270979 -5.875559 9.862254 0.74315 -10.961707 -0.379639 7.159379 0.003471 8.763967 -0.003721 -15.602022 18.042141 6.269059 -1.847752 2.492572 -2.480465 -10.146316 4.661026 4.605202 -20.94384 -0.006139 -0.00034 -21.189707 2.425185 -3.591067 -0.00965 0.006898 0.009394 -1.359331 2.218518 -0.723729 -21.30718 0.597374 3.001115 -13.798034 -0.005888 0.006353 -23.831669 -0.25666 -0.829253 -60.187546 2.458589 -0.835105 -0.291548 1.657331 0.858718 -14.211681 0.096286 1.291645 -34.182953 -0.287113 0.980362 -20.045038 0.941669 1.213841 0.007014 -0.002741 0.003494 -3.424552 0.750254 0.515871 -15.926779 -3.140371 2.986421 -6.332283 0.004602 0.009411 -18.097765 3.627607 -4.906691 0.004856 0.002635 0.005803 18.162064 8.994807 19.311337 51.714226 10.026147 22.084822 -0.368005 38.323448 -0.008916 4.094999 4.729206 7.123612 2.242541 -5.255935 -3.101105 14.257276 -0.86991 7.01607 -0.004109 -12.710183 0.026691 15.968942 -17.452168 2.472909 1.665043 -1.945079 -2.891141 4.728673 -4.180884 5.014994 11.027428 0.01373 -0.025144 12.118583 -3.720764 -2.851545 0.010309 -0.003415 -0.001171 1.287653 -1.910967 -1.496685 14.804722 0.566779 3.857792 14.233701 -1.31668 -6.65858 19.614811 0.175728 -0.622841 49.536922 -0.618208 -6.223673 0.348767 -1.506338 -0.020928 20.223825 3.704596 2.299115 18.791655 0.01064 0.014409 10.766636 -0.47698 1.404107 -0.02342 -0.001878 0.005735 3.270555 0.324462 -0.595809 21.487503 11.844222 2.250117 8.171927 -0.004164 -0.006848 18.368406 -3.798292 -4.933917 -0.00719 0.002676 -0.0055 7.282986 12.174533 -0.602148 -0.051555 -0.283965 7.306629 -11.067892 0.54755 -2.175199 1.627978 -1.934747 0.12736 -0.00179 -0.006898 0.000303 -6.836449 -16.060886 -0.615046 0.080171 0.176939 12.250931 7.277005 0.765807 -6.748448 -1.42341 0.885627 0.227135 1.3e-05 0.006472 0.001073 
0.107009 0.0 -0.086567 0.0 1.523252 0.0 0.0 99.702927 0.0 0.752046 0.047162 -3.397137 -0.041989 -0.407837 -1.988002 -0.537429 -0.983043 -6.075806 -0.922332 -2.866233 22.641808 -0.541023 2.6569 9.458957 -0.264098 -0.940597 -3.761909 -1.499113 -0.851919 -23.192446 0.000637 -9.4e-05 0.00027 -0.005969 -0.07053 0.05265 0.627084 -3.776981 -10.302298 -0.645266 3.64039 -10.281939 -16.773153 -6.780522 22.060972 -50.206753 -17.974178 19.343672 -0.348445 -35.33926 0.041461 -0.762516 0.144797 7.122153 -5.853069 9.844207 0.816805 -10.922235 -0.34984 7.202713 -0.008507 8.77889 -0.005896 -15.668707 18.067118 6.328766 -1.850939 2.499007 -2.523128 -10.175666 4.69127 4.629861 -20.999525 0.020263 -0.022345 -21.274988 2.452965 -3.622973 -0.005363 0.011156 0.003715 -1.375809 2.238217 -0.735756 -21.34482 0.594531 2.977965 -13.833045 0.004323 -0.013862 -23.940174 -0.242159 -0.848824 -60.436253 2.3329 -0.77967 -0.305175 1.682605 0.835459 -14.218941 0.092894 1.296183 -34.226791 -0.285777 0.948441 -20.025772 0.979513 1.217688 -0.009636 -0.003433 -0.004549 -3.467658 0.802684 0.492415 -15.917607 -3.174907 2.984164 -6.335465 0.004401 -0.002474 -18.102047 3.66047 -4.911387 0.007938 -0.002954 -0.005468 18.100042 8.990421 19.401377 51.683537 9.654258 22.231407 -0.505906 37.850616 -0.052205 3.861462 5.028297 7.546885 2.203588 -5.229139 -3.095154 14.283336 -0.81009 6.96889 0.010398 -12.689709 -0.000529 15.868922 -17.337196 2.511116 1.662771 -1.965737 -2.868724 4.742001 -4.175004 4.98529 11.029972 -0.008175 -0.000387 12.122757 -3.743841 -2.865946 0.005053 0.005201 0.002815 1.313516 -1.952466 -1.481617 14.792843 0.563795 3.836579 14.257174 -1.357994 -6.654788 19.663788 0.119552 -0.686193 49.475185 -0.628932 -6.448753 0.376488 -1.535984 -0.030571 20.214445 3.676603 2.317148 18.797043 -0.029984 -0.006535 10.779612 -0.474907 1.385926 -0.003119 -0.005816 0.003852 3.329011 0.261909 -0.592093 21.451813 11.83728 2.280391 8.181268 0.005159 -0.007879 18.414831 -3.825397 -4.972219 0.004937 -0.00416 0.000482 6.979365 11.009721 -0.232917 -0.068943 -0.290555 6.060892 -10.821448 0.533573 -1.411308 1.613371 -1.963844 0.039447 -0.002268 -0.002208 0.003039 -7.110596 -16.876469 0.080789 0.059475 0.117864 11.768903 7.360474 0.212257 -6.695346 -1.419118 0.897545 -0.014791 0.000342 0.002799 -0.001418 
0.071187 0.0 -0.107923 0.0 3.301279 0.0 0.0 99.721489 0.0 0.941397 0.063782 -3.533999 -0.031144 -0.381468 -1.952466 -0.500441 -0.820219 -6.102469 -0.959491 -2.776846 22.792837 -1.480685 3.235097 9.589624 -0.197733 -0.204323 -3.787464 -1.995409 -0.026386 -22.877649 -0.000431 -0.001802 6.5e-05 -0.00251 -0.056589 0.056045 0.630574 -3.758812 -10.246272 -0.63781 3.653863 -10.246216 -16.714579 -6.728501 21.87915 -50.11013 -18.723312 19.335045 -0.389509 -35.846844 0.092921 -0.928838 0.158112 6.856395 -5.843581 9.863083 0.771461 -10.978188 -0.366908 7.175222 -0.009274 8.774425 0.003108 -15.705076 18.084518 6.349016 -1.838292 2.496237 -2.528264 -10.164808 4.694174 4.652329 -20.972082 0.010807 -0.016951 -21.247519 2.475444 -3.61788 0.003265 -0.004004 -0.001676 -1.362833 2.239748 -0.744186 -21.325644 0.602325 3.004212 -13.81969 0.008496 -0.004262 -23.889658 -0.214823 -0.867946 -60.454605 2.376709 -0.826198 -0.3011 1.688874 0.833802 -14.200747 0.085715 1.307719 -34.232159 -0.276826 0.927394 -20.033247 0.994975 1.199295 -0.001711 -0.003758 0.00179 -3.43946 0.799403 0.49475 -15.908588 -3.16483 3.003788 -6.335629 0.004733 -0.000362 -18.092537 3.664477 -4.91223 0.007758 0.003564 6e-05 17.620747 9.272182 20.15346 52.103493 9.574384 23.061312 -0.583511 36.931358 -0.095163 3.549007 5.334592 8.433916 2.239298 -5.218756 -3.115475 14.276065 -0.867991 6.983029 -0.003312 -12.704336 -0.023666 15.690673 -17.223957 2.588861 1.669056 -1.955846 -2.874715 4.733616 -4.174746 4.980174 11.039047 -0.006767 0.002315 12.137043 -3.723845 -2.872607 0.003804 -0.004385 0.007694 1.290834 -1.950717 -1.488121 14.812201 0.588574 3.848922 14.241818 -1.342146 -6.64867 19.635307 0.150803 -0.646184 49.375416 -0.600638 -6.342119 0.355831 -1.540487 -0.018516 20.241009 3.712286 2.302559 18.811142 0.019094 0.007173 10.74301 -0.480519 1.410645 -0.000417 -2e-06 -0.00517 3.288669 0.267795 -0.590798 21.5166 11.88302 2.280383 8.179375 0.000633 -0.007867 18.445004 -3.787913 -4.946296 -0.002018 0.009354 -0.005209 6.570451 9.648479 -0.172086 -0.06282 -0.266564 5.314987 -10.650471 0.282158 -1.009704 1.615825 -1.953506 0.077557 0.000411 0.00057 0.002266 -7.54788 -17.993187 0.759312 0.056855 0.057314 11.495105 7.452744 -0.340122 -6.801851 -1.420468 0.876186 -0.153644 0.001322 0.005846 0.005682 
-0.024435 0.0 -0.212975 0.0 5.444888 0.0 0.0 99.722412 0.0 1.170322 0.086019 -3.73156 0.01965 -0.338708 -1.829898 -0.460314 -0.525908 -6.058411 -0.981835 -2.57915 22.897205 -2.841954 4.025983 9.630651 -0.052172 0.926602 -3.809514 -2.512796 1.320851 -22.619516 0.000256 0.001255 -0.000229 0.003972 -0.02346 0.061571 0.630748 -3.729822 -10.235739 -0.628468 3.688429 -10.238017 -16.795256 -6.056699 21.560928 -49.992142 -19.473644 18.945173 -0.518497 -36.880085 0.187237 -0.945346 0.134651 6.376022 -5.862238 9.865375 0.676156 -10.943344 -0.369139 7.14666 0.002601 8.767029 0.000102 -15.705701 18.050673 6.364199 -1.843421 2.495133 -2.505969 -10.142722 4.672865 4.627964 -20.935646 -0.005196 -0.008163 -21.17326 2.47177 -3.588254 0.007799 -0.00522 0.008462 -1.348818 2.217041 -0.739146 -21.302746 0.598661 3.008852 -13.789233 -0.004327 0.021448 -23.807753 -0.27921 -0.828917 -60.294357 2.43331 -0.635826 -0.28118 1.662467 0.841978 -14.200838 0.100124 1.288622 -34.139053 -0.301649 0.984839 -20.013031 0.960178 1.212382 0.020089 0.003351 0.007963 -3.413977 0.754495 0.522559 -15.925612 -3.143963 2.982554 -6.334598 -0.003189 0.000681 -18.091021 3.646024 -4.899842 -0.003849 0.00529 0.001848 17.266499 9.480392 20.410194 52.407787 9.697929 24.181683 -0.619793 35.568394 -0.094697 3.247813 5.584538 9.996245 2.203552 -5.316422 -3.203797 14.301867 -0.827512 6.954997 -0.009425 -12.694722 -0.00203 15.470511 -17.068352 2.679898 1.658542 -1.967482 -2.898665 4.724011 -4.157872 5.019954 10.993254 -0.006791 0.003452 12.089001 -3.715726 -2.863446 -0.005486 0.000739 -0.001178 1.285094 -1.936863 -1.49984 14.792498 0.573387 3.871211 14.227074 -1.332096 -6.663874 19.615446 0.145444 -0.642052 49.280087 -0.572382 -6.241858 0.349152 -1.513212 -0.022498 20.200926 3.682149 2.295761 18.745777 0.002913 -0.000277 10.740538 -0.483889 1.389477 -0.002917 -0.009064 0.001517 3.259251 0.304279 -0.576906 21.487293 11.8295 2.251735 8.148028 -0.006645 0.001837 18.340124 -3.788807 -4.928004 0.016087 0.000826 -0.001823 6.099046 8.183629 -0.275247 -0.053043 -0.274319 4.668735 -10.549053 -0.192729 -0.021554 1.610128 -1.949563 0.167643 0.000939 -0.000751 0.005757 -8.097698 -19.518044 1.395461 0.057257 0.023652 11.481102 7.485516 -1.019842 -7.011971 -1.415913 0.899024 -0.205902 0.000312 -0.001298 0.004788 
